<svg width="510" height="510" viewBox="0 0 510 510" fill="none" xmlns="http://www.w3.org/2000/svg">
<path opacity="0.9" d="M267.75 12.75C178.5 12.75 99.45 61.2 58.65 135.15L0 76.5V242.25H165.75L94.35 170.85C127.5 107.1 191.25 63.75 267.75 63.75C372.3 63.75 459 150.45 459 255C459 359.55 372.3 446.25 267.75 446.25C183.6 446.25 114.75 392.7 86.7 318.75H33.15C61.2 420.75 155.55 497.25 267.75 497.25C402.9 497.25 510 387.6 510 255C510 122.4 400.35 12.75 267.75 12.75ZM229.5 140.25V270.3L349.35 341.7L369.75 308.55L267.75 247.35V140.25H229.5Z" fill="#9C9C9C"/>
</svg>
